<svg width="48" height="48" viewBox="0 0 48 48" fill="none" xmlns="http://www.w3.org/2000/svg">
<path d="M9 28H12V42H9V28Z" fill="#607D8B"/>
<path d="M9 39H35V42H9V39Z" fill="#607D8B"/>
<path d="M32 28H35V42H32V28ZM15 34H29V37H15V34Z" fill="#607D8B"/>
<path d="M15.0806 28.2596L29.0002 29.7575L28.6792 32.7403L14.7596 31.2424L15.0806 28.2596Z" fill="#A68A6E"/>
<path d="M36.8706 5.99988L39.004 19.8354L36.0381 20.2927L33.9047 6.45723L36.8706 5.99988Z" fill="#EF6C00"/>
<path d="M28.4702 8.23669L35.3014 20.4547L32.682 21.9192L25.8508 9.70122L28.4702 8.23669Z" fill="#FF9800"/>
<path d="M20.501 14.551L32.0003 22.5329L30.2891 24.9982L18.7898 17.0163L20.501 14.551Z" fill="#D38B28"/>
<path d="M16.8994 21.218L30.072 25.9566L29.0562 28.7804L15.8836 24.0419L16.8994 21.218Z" fill="#C09553"/>
</svg>
